<svg width="40" height="32" viewBox="0 0 40 32" fill="none" xmlns="http://www.w3.org/2000/svg" xmlns:xlink="http://www.w3.org/1999/xlink">
<path d="M20.488,0C21.556,0.006 24.229,0.032 27.068,0.145L28.075,0.189C30.934,0.325 33.791,0.556 35.207,0.951C37.097,1.482 38.583,3.031 39.085,4.995C39.884,8.113 39.984,14.199 39.996,15.672L39.998,15.977L39.998,15.998C39.998,15.998 39.998,16.006 39.998,16.02L39.996,16.325C39.984,17.798 39.884,23.884 39.085,27.002C38.576,28.973 37.09,30.522 35.207,31.046C33.791,31.441 30.934,31.672 28.075,31.807L27.068,31.851C24.229,31.965 21.556,31.991 20.488,31.997L20.019,31.998L19.998,31.998C19.998,31.998 19.991,31.998 19.977,31.998L19.509,31.997C17.248,31.984 7.795,31.882 4.789,31.046C2.899,30.515 1.414,28.966 0.912,27.002C0.112,23.884 0.012,17.798 0,16.325L0,15.672C0.012,14.199 0.112,8.113 0.912,4.995C1.421,3.024 2.906,1.475 4.789,0.951C7.795,0.114 17.248,0.012 19.509,0L20.488,0ZM15.998,8.998L15.998,22.998L27.998,15.998L15.998,8.998Z" fill="#FFFFFF"/>
</svg>
