<svg width="104" height="102" viewBox="0 0 104 102" fill="none" xmlns="http://www.w3.org/2000/svg" xmlns:xlink="http://www.w3.org/1999/xlink">
<path d="M92.887,16L96.668,16C99.613,16 102.001,18.388 102.001,21.333L102.001,58.666C102.001,61.612 99.613,63.999 96.668,63.999L86.001,63.999L63.77,32.876C61.117,29.162 56.396,27.548 52.025,28.859L38.77,32.836C35.012,33.963 30.938,32.936 28.163,30.161L26.601,28.6C24.222,26.22 24.614,22.258 27.414,20.391L56.22,1.187C59.734,-1.156 64.3,-1.204 67.863,1.063L90.024,15.166C90.88,15.71 91.874,16 92.887,16ZM16.811,60.238L8.194,67.779C5.68,69.978 5.784,73.922 8.411,75.986L35.828,97.528C38.388,99.54 42.138,98.807 43.754,95.98L47.508,89.411C49.801,85.397 49.248,80.364 46.139,76.943L31.728,61.091C27.818,56.79 21.185,56.411 16.811,60.238ZM27.576,10.667L6,10.667C3.054,10.667 0.667,13.055 0.667,16L0.667,56.084C0.667,58.262 1.332,60.359 2.534,62.114C2.662,61.994 2.792,61.875 2.926,61.758L11.543,54.218C19.198,47.52 30.805,48.183 37.647,55.709L52.059,71.562C57.5,77.547 58.467,86.356 54.454,93.38L50.964,99.487C53.966,100.624 57.387,100.368 60.235,98.659L83.75,84.55C86.419,82.948 87.155,79.411 85.347,76.878L57.258,37.526C56.595,36.598 55.414,36.194 54.322,36.522L41.067,40.498C34.489,42.471 27.36,40.674 22.504,35.818L20.942,34.257C14.993,28.307 15.974,18.402 22.974,13.735L27.576,10.667Z" fill="#BD090C"/>
</svg>
