<svg width="40" height="40" viewBox="0 0 40 40" fill="none" xmlns="http://www.w3.org/2000/svg" xmlns:xlink="http://www.w3.org/1999/xlink">
<path d="M22.056,0.001C24.307,0.005 25.448,0.017 26.433,0.046L26.821,0.059C27.27,0.075 27.712,0.095 28.246,0.12C30.374,0.218 31.826,0.555 33.101,1.05C34.419,1.558 35.532,2.245 36.644,3.357C37.754,4.468 38.441,5.585 38.951,6.9C39.444,8.173 39.781,9.627 39.881,11.755C39.904,12.288 39.924,12.731 39.939,13.179L39.952,13.567C39.981,14.553 39.995,15.694 39.999,17.945L40,19.436C40.001,19.618 40.001,19.806 40.001,20L40,20.564L39.999,22.056C39.995,24.306 39.984,25.447 39.954,26.433L39.941,26.821C39.926,27.269 39.906,27.712 39.881,28.245C39.782,30.373 39.444,31.825 38.951,33.1C38.442,34.418 37.754,35.532 36.644,36.643C35.532,37.753 34.414,38.44 33.101,38.95C31.826,39.443 30.374,39.78 28.246,39.88C27.712,39.904 27.27,39.923 26.821,39.939L26.433,39.951C25.448,39.981 24.307,39.994 22.056,39.998L20.565,40C20.383,40 20.195,40 20.001,40L19.436,40L17.945,39.999C15.694,39.995 14.553,39.983 13.568,39.954L13.18,39.941C12.731,39.925 12.289,39.905 11.756,39.88C9.627,39.782 8.177,39.443 6.901,38.95C5.584,38.442 4.469,37.753 3.357,36.643C2.246,35.532 1.561,34.413 1.051,33.1C0.556,31.825 0.221,30.373 0.121,28.245C0.097,27.712 0.077,27.269 0.062,26.821L0.049,26.433C0.02,25.447 0.007,24.306 0.002,22.056L0.002,17.945C0.006,15.694 0.018,14.553 0.047,13.567L0.06,13.179C0.076,12.731 0.096,12.288 0.121,11.755C0.219,9.625 0.556,8.175 1.051,6.9C1.559,5.583 2.246,4.468 3.357,3.357C4.469,2.245 5.586,1.56 6.901,1.05C8.176,0.555 9.626,0.22 11.756,0.12C12.289,0.096 12.731,0.077 13.18,0.061L13.568,0.049C14.553,0.019 15.694,0.006 17.945,0.002L22.056,0.001ZM20.001,10C14.475,10 10.001,14.479 10.001,20C10.001,25.526 14.48,30 20.001,30C25.526,30 30.001,25.521 30.001,20C30.001,14.474 25.521,10 20.001,10ZM20.001,14C23.314,14 26.001,16.685 26.001,20C26.001,23.314 23.315,26 20.001,26C16.687,26 14.001,23.315 14.001,20C14.001,16.686 16.686,14 20.001,14ZM30.501,7C29.122,7 28.001,8.12 28.001,9.498C28.001,10.877 29.12,11.998 30.501,11.998C31.879,11.998 33.001,10.879 33.001,9.498C33.001,8.12 31.877,6.998 30.501,7Z" fill="#FFFFFF"/>
</svg>
