<svg width="108" height="96" viewBox="0 0 108 96" fill="none" xmlns="http://www.w3.org/2000/svg" xmlns:xlink="http://www.w3.org/1999/xlink">
<path d="M3.333,21.333C3.333,33.115 12.885,42.667 24.667,42.667C36.449,42.667 46,33.115 46,21.333C46,9.551 36.449,0 24.667,0C12.885,0 3.333,9.551 3.333,21.333ZM0.667,96L0.667,72C0.667,58.745 11.412,48 24.667,48C37.921,48 48.667,58.745 48.667,72L48.667,96L0.667,96ZM83.333,42.667C71.551,42.667 62,33.115 62,21.333C62,9.551 71.551,0 83.333,0C95.115,0 104.667,9.551 104.667,21.333C104.667,33.115 95.115,42.667 83.333,42.667ZM59.333,96L59.333,72C59.333,58.745 70.078,48 83.333,48C96.588,48 107.333,58.745 107.333,72L107.333,96L59.333,96Z" fill="#BD090C"/>
</svg>
