<svg width="42" height="40" viewBox="0 0 42 40" fill="none" xmlns="http://www.w3.org/2000/svg" xmlns:xlink="http://www.w3.org/1999/xlink">
<path d="M20.002,0C31.048,0 40.002,8.954 40.002,20C40.002,31.046 31.048,40 20.002,40C16.334,40 12.897,39.013 9.942,37.289L0.01,40L2.714,30.063C0.99,27.107 0.002,23.669 0.002,20C0.002,8.954 8.956,0 20.002,0ZM12.785,10.617C12.526,10.635 12.272,10.698 12.041,10.816C11.868,10.905 11.707,11.033 11.454,11.272C11.215,11.497 11.077,11.694 10.931,11.884C10.192,12.846 9.795,14.028 9.802,15.242C9.806,16.223 10.061,17.177 10.463,18.067C11.28,19.873 12.626,21.782 14.404,23.552C14.831,23.977 15.249,24.407 15.701,24.804C17.908,26.747 20.538,28.148 23.381,28.896C23.381,28.896 24.501,29.068 24.518,29.069C24.889,29.089 25.259,29.063 25.631,29.044C26.213,29.014 26.782,28.856 27.297,28.582C27.628,28.406 27.784,28.318 28.062,28.143C28.062,28.143 28.147,28.085 28.312,27.963C28.582,27.762 28.749,27.62 28.973,27.387C29.139,27.215 29.281,27.012 29.391,26.783C29.548,26.456 29.705,25.833 29.768,25.316C29.815,24.921 29.801,24.705 29.796,24.571C29.787,24.356 29.609,24.134 29.415,24.04L28.252,23.517C28.252,23.517 26.513,22.761 25.449,22.275C25.338,22.225 25.217,22.201 25.095,22.194C24.828,22.178 24.529,22.247 24.339,22.448C24.329,22.444 24.197,22.558 22.75,24.311C22.67,24.406 22.483,24.614 22.16,24.594C22.111,24.591 22.062,24.584 22.015,24.572C21.884,24.537 21.756,24.491 21.631,24.439C21.384,24.334 21.297,24.294 21.128,24.221C19.974,23.717 18.914,23.042 17.977,22.216C17.726,21.995 17.493,21.757 17.252,21.523C16.411,20.709 15.723,19.842 15.212,18.988C15.184,18.941 15.141,18.874 15.094,18.798C15.01,18.662 14.918,18.5 14.889,18.389C14.815,18.095 15.012,17.858 15.012,17.858C15.012,17.858 15.499,17.326 15.725,17.037C15.943,16.758 16.13,16.486 16.25,16.291C16.486,15.913 16.56,15.521 16.436,15.219C15.875,13.851 15.296,12.491 14.7,11.138C14.582,10.871 14.232,10.677 13.913,10.64C13.805,10.628 13.697,10.615 13.589,10.608C13.321,10.595 13.052,10.598 12.785,10.617Z" fill="#FFFFFF"/>
</svg>
